<mxfile host="app.diagrams.net" modified="2022-04-27T08:33:22.051Z" agent="5.0 (Windows NT 10.0; Win64; x64) AppleWebKit/537.36 (KHTML, like Gecko) Chrome/100.0.4896.127 Safari/537.36" etag="gVVGXJ_SPxBA_mSSnQs-" version="17.4.6" type="github">
  <diagram id="pb9K2aLrL0MpspYT_wj8" name="Page-1">
    <mxGraphModel dx="981" dy="548" grid="1" gridSize="10" guides="1" tooltips="1" connect="1" arrows="1" fold="1" page="1" pageScale="1" pageWidth="827" pageHeight="1169" math="0" shadow="0">
      <root>
        <mxCell id="0" />
        <mxCell id="1" parent="0" />
        <mxCell id="Z9PqrU4sEe4VKfccKRTh-19" style="edgeStyle=orthogonalEdgeStyle;rounded=0;orthogonalLoop=1;jettySize=auto;html=1;exitX=1;exitY=0.75;exitDx=0;exitDy=0;entryX=-0.014;entryY=0.832;entryDx=0;entryDy=0;entryPerimeter=0;" edge="1" parent="1" source="Z9PqrU4sEe4VKfccKRTh-1" target="Z9PqrU4sEe4VKfccKRTh-2">
          <mxGeometry relative="1" as="geometry" />
        </mxCell>
        <mxCell id="Z9PqrU4sEe4VKfccKRTh-1" value="request pool" style="rounded=0;whiteSpace=wrap;html=1;" vertex="1" parent="1">
          <mxGeometry x="330" y="270" width="110" height="80" as="geometry" />
        </mxCell>
        <mxCell id="Z9PqrU4sEe4VKfccKRTh-7" style="edgeStyle=orthogonalEdgeStyle;rounded=0;orthogonalLoop=1;jettySize=auto;html=1;exitX=0.5;exitY=1;exitDx=0;exitDy=0;entryX=0.5;entryY=0;entryDx=0;entryDy=0;" edge="1" parent="1" source="Z9PqrU4sEe4VKfccKRTh-2" target="Z9PqrU4sEe4VKfccKRTh-6">
          <mxGeometry relative="1" as="geometry" />
        </mxCell>
        <mxCell id="Z9PqrU4sEe4VKfccKRTh-18" style="edgeStyle=orthogonalEdgeStyle;rounded=0;orthogonalLoop=1;jettySize=auto;html=1;exitX=0;exitY=0.25;exitDx=0;exitDy=0;entryX=1.016;entryY=0.318;entryDx=0;entryDy=0;entryPerimeter=0;" edge="1" parent="1" source="Z9PqrU4sEe4VKfccKRTh-2" target="Z9PqrU4sEe4VKfccKRTh-1">
          <mxGeometry relative="1" as="geometry" />
        </mxCell>
        <mxCell id="Z9PqrU4sEe4VKfccKRTh-2" value="获得请求" style="rounded=0;whiteSpace=wrap;html=1;" vertex="1" parent="1">
          <mxGeometry x="480" y="280" width="120" height="60" as="geometry" />
        </mxCell>
        <mxCell id="Z9PqrU4sEe4VKfccKRTh-24" style="edgeStyle=orthogonalEdgeStyle;rounded=0;orthogonalLoop=1;jettySize=auto;html=1;exitX=0.5;exitY=1;exitDx=0;exitDy=0;" edge="1" parent="1" source="Z9PqrU4sEe4VKfccKRTh-6" target="Z9PqrU4sEe4VKfccKRTh-22">
          <mxGeometry relative="1" as="geometry" />
        </mxCell>
        <mxCell id="Z9PqrU4sEe4VKfccKRTh-6" value="请求应该生成的时间&lt;br&gt;t1" style="rounded=0;whiteSpace=wrap;html=1;" vertex="1" parent="1">
          <mxGeometry x="480" y="360" width="120" height="40" as="geometry" />
        </mxCell>
        <mxCell id="Z9PqrU4sEe4VKfccKRTh-12" style="edgeStyle=orthogonalEdgeStyle;rounded=0;orthogonalLoop=1;jettySize=auto;html=1;exitX=0.5;exitY=1;exitDx=0;exitDy=0;entryX=0.5;entryY=0;entryDx=0;entryDy=0;" edge="1" parent="1" source="Z9PqrU4sEe4VKfccKRTh-9" target="Z9PqrU4sEe4VKfccKRTh-11">
          <mxGeometry relative="1" as="geometry" />
        </mxCell>
        <mxCell id="Z9PqrU4sEe4VKfccKRTh-9" value="redis处理请求" style="rounded=1;whiteSpace=wrap;html=1;" vertex="1" parent="1">
          <mxGeometry x="485" y="490" width="110" height="30" as="geometry" />
        </mxCell>
        <mxCell id="Z9PqrU4sEe4VKfccKRTh-15" style="edgeStyle=orthogonalEdgeStyle;rounded=0;orthogonalLoop=1;jettySize=auto;html=1;exitX=0.5;exitY=1;exitDx=0;exitDy=0;entryX=0.5;entryY=0;entryDx=0;entryDy=0;" edge="1" parent="1" source="Z9PqrU4sEe4VKfccKRTh-11" target="Z9PqrU4sEe4VKfccKRTh-13">
          <mxGeometry relative="1" as="geometry" />
        </mxCell>
        <mxCell id="Z9PqrU4sEe4VKfccKRTh-11" value="请求完成时间&lt;br&gt;t3" style="rounded=0;whiteSpace=wrap;html=1;" vertex="1" parent="1">
          <mxGeometry x="480" y="540" width="120" height="40" as="geometry" />
        </mxCell>
        <mxCell id="Z9PqrU4sEe4VKfccKRTh-16" style="edgeStyle=orthogonalEdgeStyle;rounded=0;orthogonalLoop=1;jettySize=auto;html=1;exitX=1;exitY=0.5;exitDx=0;exitDy=0;entryX=1;entryY=0.5;entryDx=0;entryDy=0;" edge="1" parent="1" source="Z9PqrU4sEe4VKfccKRTh-13" target="Z9PqrU4sEe4VKfccKRTh-2">
          <mxGeometry relative="1" as="geometry" />
        </mxCell>
        <mxCell id="Z9PqrU4sEe4VKfccKRTh-13" value="“消化请求”之后时间&lt;br&gt;t4" style="rounded=0;whiteSpace=wrap;html=1;" vertex="1" parent="1">
          <mxGeometry x="480" y="595" width="120" height="60" as="geometry" />
        </mxCell>
        <mxCell id="Z9PqrU4sEe4VKfccKRTh-14" value="" style="rounded=0;whiteSpace=wrap;html=1;" vertex="1" parent="1">
          <mxGeometry x="50" y="940" width="120" height="60" as="geometry" />
        </mxCell>
        <mxCell id="Z9PqrU4sEe4VKfccKRTh-20" value="服务时间：t3-t2" style="text;html=1;strokeColor=none;fillColor=none;align=center;verticalAlign=middle;whiteSpace=wrap;rounded=0;" vertex="1" parent="1">
          <mxGeometry x="650" y="390" width="160" height="30" as="geometry" />
        </mxCell>
        <mxCell id="Z9PqrU4sEe4VKfccKRTh-21" value="总时间：t4-t1" style="text;html=1;strokeColor=none;fillColor=none;align=center;verticalAlign=middle;whiteSpace=wrap;rounded=0;" vertex="1" parent="1">
          <mxGeometry x="650" y="430" width="160" height="30" as="geometry" />
        </mxCell>
        <mxCell id="Z9PqrU4sEe4VKfccKRTh-23" style="edgeStyle=orthogonalEdgeStyle;rounded=0;orthogonalLoop=1;jettySize=auto;html=1;exitX=0.5;exitY=1;exitDx=0;exitDy=0;" edge="1" parent="1" source="Z9PqrU4sEe4VKfccKRTh-22" target="Z9PqrU4sEe4VKfccKRTh-9">
          <mxGeometry relative="1" as="geometry" />
        </mxCell>
        <mxCell id="Z9PqrU4sEe4VKfccKRTh-22" value="开始处理请求时间&lt;br&gt;t2" style="rounded=0;whiteSpace=wrap;html=1;" vertex="1" parent="1">
          <mxGeometry x="480" y="420" width="120" height="40" as="geometry" />
        </mxCell>
        <mxCell id="Z9PqrU4sEe4VKfccKRTh-25" value="排队时间：总时间-服务时间&lt;br&gt;t4-t3 + t2-t1" style="text;html=1;strokeColor=none;fillColor=none;align=center;verticalAlign=middle;whiteSpace=wrap;rounded=0;" vertex="1" parent="1">
          <mxGeometry x="650" y="470" width="160" height="30" as="geometry" />
        </mxCell>
      </root>
    </mxGraphModel>
  </diagram>
</mxfile>
